Coordinates
version=1
nRows=29
nColumns=24
inDegrees=yes

Units are S.I. units (second, meters, Newtons, ...)
Angles are in degrees.

endheader
time	pelvis_tilt	pelvis_list	pelvis_rotation	pelvis_tx	pelvis_ty	pelvis_tz	hip_flexion_r	hip_adduction_r	hip_rotation_r	knee_angle_r	ankle_angle_r	subtalar_angle_r	mtp_angle_r	hip_flexion_l	hip_adduction_l	hip_rotation_l	knee_angle_l	ankle_angle_l	subtalar_angle_l	mtp_angle_l	lumbar_extension	lumbar_bending	lumbar_rotation
      5.87000000	     14.47464543	      1.61967763	     13.96072167	      1.48899839	      0.91511445	     -0.28832856	      6.27531224	     -2.42000705	     -4.90735979	     -2.37107595	     12.78861841	     -2.86487459	      0.00000000	    -31.85909126	     -2.25866243	     14.35320358	    -12.63164753	     24.22085064	      5.88556842	      0.00000000	    -29.16394185	      4.57707007	    -18.06976486
      5.87500000	     14.65824812	      1.20951986	     14.15304037	      1.49624891	      0.91470136	     -0.28805266	      6.24920307	     -1.86738248	     -4.92340171	     -3.17428535	     12.76837311	     -3.10735302	      0.00000000	    -32.06907225	     -2.89906567	     13.91699187	    -13.35859660	     24.10818407	      6.59610152	      0.00000000	    -29.20341910	      5.10989961	    -18.00537412
      5.88000000	     14.79623707	      0.77025557	     14.37386442	      1.50356955	      0.91429351	     -0.28779298	      6.26556413	     -1.29218808	     -4.96473097	     -4.01253487	     12.74738063	     -3.33979227	      0.00000000	    -32.18332490	     -3.56987810	     13.45510925	    -14.16810240	     23.94787127	      7.32571135	      0.00000000	    -29.17219276	      5.66294651	    -17.91056244
      5.88500000	     15.01893797	      0.29561648	     14.52454582	      1.51094783	      0.91397109	     -0.28740055	      6.21816705	     -0.63807151	     -4.94821906	     -4.91257278	     12.70439813	     -3.63808040	      0.00000000	    -32.38703525	     -4.26665639	     12.89091801	    -14.96901231	     23.73449367	      8.10167516	      0.00000000	    -29.22721898	      6.23797520	    -17.78729023
      5.89000000	     15.12728295	     -0.19413285	     14.74230530	      1.51838175	      0.91359992	     -0.28708996	      6.27477761	     -0.00394275	     -5.00743163	     -5.82822449	     12.68076955	     -3.85217396	      0.00000000	    -32.40428983	     -4.97936782	     12.38941614	    -15.88541151	     23.48563096	      8.86822741	      0.00000000	    -29.13452869	      6.82465824	    -17.66678740
      5.89500000	     15.25456207	     -0.70909201	     14.92100727	      1.52587482	      0.91327011	     -0.28668824	      6.31907027	      0.67628052	     -5.03154469	     -6.76888247	     12.64167634	     -4.10915104	      0.00000000	    -32.42076642	     -5.70731297	     11.82355477	    -16.83450675	     23.17754682	      9.68517872	      0.00000000	    -29.05214661	      7.41636470	    -17.53441980
      5.90000000	     15.37235329	     -1.24438754	     15.07884687	      1.53336324	      0.91294699	     -0.28626918	      6.38333154	      1.37941833	     -5.06299450	     -7.73765412	     12.58999935	     -4.34730458	      0.00000000	    -32.39008218	     -6.43641503	     11.26235541	    -17.84825772	     22.85571872	     10.49978407	      0.00000000	    -28.95952124	      8.02460345	    -17.39768138
      5.90500000	     15.48543522	     -1.78488492	     15.24317166	      1.54095044	      0.91268228	     -0.28577514	      6.43179841	      2.10009887	     -5.08287862	     -8.68908498	     12.53229923	     -4.61153071	      0.00000000	    -32.32717357	     -7.18810257	     10.64488108	    -18.89689902	     22.41117216	     11.33561087	      0.00000000	    -28.84410933	      8.61804863	    -17.25204296
      5.91000000	     15.59621170	     -2.33537099	     15.38848726	      1.54856227	      0.91244094	     -0.28526272	      6.47231330	      2.83767912	     -5.09150776	     -9.62487880	     12.48187945	     -4.88457194	      0.00000000	    -32.22559004	     -7.93701111	     10.03163266	    -20.01016587	     21.91224243	     12.16074975	      0.00000000	    -28.72173188	      9.21215936	    -17.09514347
      5.91500000	     15.69916486	     -2.89670050	     15.52537211	      1.55621450	      0.91222822	     -0.28471249	      6.50639170	      3.59317895	     -5.08882669	    -10.53545639	     12.44083974	     -5.16645027	      0.00000000	    -32.07863925	     -8.69401990	      9.41320864	    -21.18101828	     21.34723238	     12.97899103	      0.00000000	    -28.57987190	      9.80699274	    -16.93850590
      5.92000000	     15.79314260	     -3.45644162	     15.65936065	      1.56387122	      0.91204447	     -0.28413804	      6.53441393	      4.35122574	     -5.07982107	    -11.42111745	     12.41387889	     -5.45509716	      0.00000000	    -31.88066094	     -9.44867857	      8.80449057	    -22.41352089	     20.72367848	     13.76120124	      0.00000000	    -28.42708258	     10.39066519	    -16.78639760
      5.92500000	     15.87240115	     -4.00977933	     15.79597256	      1.57152935	      0.91189593	     -0.28354780	      6.55745246	      5.10300959	     -5.07575305	    -12.27240440	     12.39674667	     -5.72488856	      0.00000000	    -31.62205751	    -10.19823711	      8.22349466	    -23.70987228	     20.02388427	     14.50380690	      0.00000000	    -28.25937814	     10.96348216	    -16.64417819
      5.93000000	     15.94323214	     -4.56679590	     15.91630718	      1.57917414	      0.91176620	     -0.28288723	      6.57617819	      5.86948260	     -5.04636312	    -13.08852623	     12.37798598	     -6.08000276	      0.00000000	    -31.30977551	    -10.94679269	      7.62575207	    -25.06962470	     19.28811936	     15.17897766	      0.00000000	    -28.08640886	     11.51776834	    -16.50456258
      5.93500000	     15.99411867	     -5.10919307	     16.05609805	      1.58682380	      0.91168182	     -0.28230010	      6.58914842	      6.60657144	     -5.06763038	    -13.86668994	     12.42613962	     -6.28582787	      0.00000000	    -30.93343530	    -11.68227124	      7.12831746	    -26.47481559	     18.45454762	     15.81667406	      0.00000000	    -27.88409393	     12.07227321	    -16.39161833
      5.94000000	     16.01732228	     -5.63688041	     16.19679514	      1.59440401	      0.91161677	     -0.28165558	      6.60757200	      7.33302756	     -5.04642984	    -14.58727719	     12.44025378	     -6.61282146	      0.00000000	    -30.46405003	    -12.40168538	      6.66484737	    -27.96472650	     17.58430313	     16.36335948	      0.00000000	    -27.66407558	     12.59349968	    -16.29994480
      5.94500000	     16.05197919	     -6.16090288	     16.34368796	      1.60202581	      0.91160298	     -0.28108836	      6.58198205	      8.05053578	     -5.07810249	    -15.25269065	     12.56286734	     -6.77167746	      0.00000000	    -29.97497359	    -13.11618252	      6.25175883	    -29.47828201	     16.63949951	     16.79833629	      0.00000000	    -27.44044786	     13.12555873	    -16.21492074
      5.95000000	     16.07064166	     -6.66614884	     16.50498192	      1.60956717	      0.91162174	     -0.28050392	      6.55050975	      8.74993120	     -5.10434997	    -15.86365479	     12.67372175	     -7.00000897	      0.00000000	    -29.40691590	    -13.81653795	      5.90169515	    -31.05594381	     15.66267619	     17.13815583	      0.00000000	    -27.21001458	     13.63391556	    -16.16134393
      5.95500000	     16.07159396	     -7.15438237	     16.66919853	      1.61705613	      0.91166619	     -0.27992761	      6.51248415	      9.42743818	     -5.13795107	    -16.42241090	     12.81889300	     -7.21178713	      0.00000000	    -28.76840388	    -14.49311099	      5.61292374	    -32.68094937	     14.65712566	     17.35601236	      0.00000000	    -26.96714131	     14.12166413	    -16.12967260
      5.96000000	     15.99277518	     -7.59264261	     16.86379591	      1.62439838	      0.91169405	     -0.27933216	      6.53831058	     10.02925535	     -5.20384265	    -16.94562132	     12.98739316	     -7.43538871	      0.00000000	    -27.96235500	    -15.12035697	      5.44521468	    -34.38414166	     13.64226948	     17.53256310	      0.00000000	    -26.65784676	     14.54108241	    -16.17589099
      5.96500000	     16.00797276	     -8.04272941	     17.00735788	      1.63178212	      0.91183475	     -0.27884827	      6.42486288	     10.66535540	     -5.24674293	    -17.38862198	     13.22949262	     -7.55027926	      0.00000000	    -27.26295912	    -15.72381417	      5.25439220	    -36.06006334	     12.58211794	     17.38085267	      0.00000000	    -26.44844424	     15.00213242	    -16.14113748
      5.97000000	     15.84154011	     -8.42187001	     17.24736930	      1.63897868	      0.91187997	     -0.27834710	      6.49049678	     11.16870748	     -5.37603158	    -17.81564888	     13.49258738	     -7.67966068	      0.00000000	    -26.24219762	    -16.26808534	      5.29885147	    -37.84131332	     11.53519887	     17.25303176	      0.00000000	    -26.04195776	     15.35954183	    -16.28818972
      5.97500000	     15.85585903	     -8.84079446	     17.42876752	      1.64623122	      0.91208475	     -0.27783018	      6.33311104	     11.77805273	     -5.44898696	    -18.14816058	     13.76163322	     -7.80034186	      0.00000000	    -25.43742930	    -16.85927119	      5.20823081	    -39.56026211	     10.52482580	     16.96498300	      0.00000000	    -25.84033262	     15.77731359	    -16.28950820
      5.98000000	     15.77167430	     -9.20201757	     17.66868409	      1.65332562	      0.91227316	     -0.27746079	      6.24609337	     12.28292295	     -5.57210020	    -18.42329025	     14.06608084	     -7.87071600	      0.00000000	    -24.43986365	    -17.36336883	      5.33621798	    -41.33475924	      9.52550457	     16.53385963	      0.00000000	    -25.53648477	     16.15871416	    -16.41034862
      5.98500000	     15.87941029	     -9.51753320	     17.76697807	      1.66040833	      0.91269657	     -0.27694491	      5.90916746	     12.82343166	     -5.52189823	    -18.65260526	     14.38453946	     -7.92573791	      0.00000000	    -23.72443280	    -17.80009054	      5.28084500	    -43.00697132	      8.51905732	     15.88469755	      0.00000000	    -25.50656706	     16.46248756	    -16.28581861
      5.99000000	     15.69769156	     -9.84947036	     18.11288306	      1.66734798	      0.91283508	     -0.27670804	      5.88722237	     13.25267359	     -5.80393940	    -18.81583321	     14.74820957	     -7.96481446	      0.00000000	    -22.48115690	    -18.26555630	      5.62790678	    -44.82618580	      7.67207784	     15.24311966	      0.00000000	    -25.07252224	     16.83194878	    -16.59661506
      5.99500000	     15.62532756	    -10.12718306	     18.30067524	      1.67422380	      0.91314244	     -0.27635138	      5.70582546	     13.67706969	     -5.89358309	    -18.95406550	     15.12653682	     -7.95885931	      0.00000000	    -21.42638000	    -18.61453854	      5.83604433	    -46.55759771	      6.85264940	     14.39803853	      0.00000000	    -24.83304396	     17.10534058	    -16.67367292
      6.00000000	     15.59763485	    -10.38381569	     18.50523091	      1.68105426	      0.91352587	     -0.27601994	      5.44537201	     14.09750335	     -5.98615331	    -19.02371336	     15.49794694	     -7.96796288	      0.00000000	    -20.39597260	    -18.94552671	      6.07767911	    -48.25416295	      6.12249941	     13.47324911	      0.00000000	    -24.64671257	     17.36935422	    -16.75080180
      6.00500000	     15.58318882	    -10.60279143	     18.70064383	      1.68782316	      0.91396957	     -0.27572668	      5.13576335	     14.48363545	     -6.06638326	    -19.04155591	     15.88282721	     -7.95737161	      0.00000000	    -19.36875992	    -19.21461968	      6.35398592	    -49.91291286	      5.47996022	     12.44534709	      0.00000000	    -24.49056210	     17.59978362	    -16.81818720
      6.01000000	     15.57305307	    -10.79624132	     18.88500029	      1.69453244	      0.91445351	     -0.27543898	      4.79363060	     14.84704746	     -6.13238476	    -19.01367219	     16.26642382	     -7.93371022	      0.00000000	    -18.33443327	    -19.43579493	      6.65109182	    -51.53269908	      4.94941014	     11.34713453	      0.00000000	    -24.35252629	     17.80064797	    -16.88280173
